<svg xmlns="http://www.w3.org/2000/svg" xmlns:xlink="http://www.w3.org/1999/xlink" viewBox="0 0 695.87 181.55"><defs><style>.cls-1{fill:#744a2c;}.cls-2{fill:#603618;}.cls-3{fill:url(#linear-gradient);}.cls-4{fill:url(#linear-gradient-3);}.cls-5{fill:url(#linear-gradient-4);}.cls-6{fill:url(#linear-gradient-5);}.cls-7{fill:url(#linear-gradient-6);}.cls-8{fill:url(#linear-gradient-7);}</style><linearGradient id="linear-gradient" x1="-29.24" y1="177.48" x2="174.13" y2="70.55" gradientUnits="userSpaceOnUse"><stop offset="0" stop-color="#fdc113"/><stop offset="0.17" stop-color="#f4b819"/><stop offset="0.41" stop-color="#dda21e"/><stop offset="0.9" stop-color="#a2682b"/><stop offset="1" stop-color="#955c2e"/></linearGradient><linearGradient id="linear-gradient-3" x1="496.86" y1="39.68" x2="552.34" y2="127.17" gradientUnits="userSpaceOnUse"><stop offset="0" stop-color="#f9a61c"/><stop offset="0.08" stop-color="#f8ab1b"/><stop offset="0.35" stop-color="#f4b819"/><stop offset="0.47" stop-color="#efb31a"/><stop offset="0.61" stop-color="#dfa41e"/><stop offset="0.78" stop-color="#c58b23"/><stop offset="0.95" stop-color="#a1682b"/><stop offset="1" stop-color="#955c2e"/></linearGradient><linearGradient id="linear-gradient-4" x1="546.76" y1="38.18" x2="616.08" y2="38.18" gradientUnits="userSpaceOnUse"><stop offset="0" stop-color="#2aa3a2"/><stop offset="1" stop-color="#28858f"/></linearGradient><linearGradient id="linear-gradient-5" x1="557.39" y1="108.8" x2="622.67" y2="132.09" gradientUnits="userSpaceOnUse"><stop offset="0" stop-color="#c26633"/><stop offset="0.05" stop-color="#ca6f30"/><stop offset="0.2" stop-color="#df8927"/><stop offset="0.34" stop-color="#ec9922"/><stop offset="0.44" stop-color="#f09e20"/><stop offset="0.52" stop-color="#e99321"/><stop offset="0.84" stop-color="#d16a22"/><stop offset="1" stop-color="#c85b23"/></linearGradient><linearGradient id="linear-gradient-6" x1="544.36" y1="61.46" x2="689.42" y2="61.46" gradientUnits="userSpaceOnUse"><stop offset="0" stop-color="#02572e"/><stop offset="1" stop-color="#056a38"/></linearGradient><linearGradient id="linear-gradient-7" x1="549.73" y1="89.02" x2="695.87" y2="89.02" gradientUnits="userSpaceOnUse"><stop offset="0" stop-color="#b82f26"/><stop offset="1" stop-color="#dd4d29"/></linearGradient></defs><g id="Layer_2" data-name="Layer 2"><g id="Layer_1-2" data-name="Layer 1"><path class="cls-1" d="M110.34,117.6c0-3.69,1.8-5.66,5.5-5.74H149v9.27H121.1v11.48h20.82v3.53c.08,3.69-1.81,5.5-5.66,5.5H121.1v13.83H149v9.82H110.34Z"/><path class="cls-1" d="M165.1,134.57H154.65c1.26-7.7,6.68-11.47,16.26-11.47,11.47,0,17.29,3.77,17.52,11.47v14.14c0,11.47-6.91,16.58-18.15,17.37-10,.78-16.89-3.86-16.89-13.05.24-10,7.46-12.65,18-13.67,4.48-.55,6.76-1.88,6.76-4.16-.24-2.36-2.44-3.54-6.76-3.54C167.69,131.66,165.65,132.61,165.1,134.57Zm13.2,13.67v-3.85A44.93,44.93,0,0,1,170,146.9c-4.17.79-6.29,2.75-6.29,5.82.24,3.3,2,4.87,5.27,4.87C174.76,157.59,178.3,154.13,178.3,148.24Z"/><path class="cls-1" d="M211.61,157.75c4.4,0,6.6-1.26,6.6-3.93,0-2.12-3.62-3.85-10.76-5.11-9.2-1.65-13.91-5.73-14-12.25,0-9,7.07-13.2,16.58-13.36q8,0,12.73,3.53a13.21,13.21,0,0,1,4.94,10.14h-6.59c-2.44-.08-4-.94-4.64-2.59-.71-1.81-2.83-2.83-6.29-2.83-4.08,0-6.12,1.1-6.12,3.22s2.67,3.77,8.09,4.79c7.07,1.42,11.71,3.22,14,5.34a10.32,10.32,0,0,1,2.91,7.39c0,10.21-8,14-19,14-5.82,0-10.22-1.26-13-3.7-3.15-2.35-4.72-6-4.72-10.76H203C203.2,156.17,206.5,157.75,211.61,157.75Z"/><path class="cls-1" d="M245.16,131.19h-1.1v23c0,1.73,1,2.67,3.06,2.67h3.22v7.94a58,58,0,0,1-11-.08c-3.93-.39-5.81-2.83-5.73-7.46V111.86H239a5.28,5.28,0,0,1,5,5.27v6.6h6.28V126A5.08,5.08,0,0,1,245.16,131.19Z"/><path class="cls-1" d="M265.35,138.73v26.56H254.74V140.85c0-11.86,6-17.75,17.84-17.75,5.34,0,9.42,1.18,12.41,3.53,3-2.27,7.07-3.37,12.41-3.37,11.87,0,17.76,5.89,17.68,17.75v24.44h-5.42c-3.46-.24-5.19-1.89-5.19-5.19V138.89c-.23-4.32-2.59-6.44-7.22-6.44s-7,2.12-7.08,6.44v26.4H279.65V138.73c-.24-4.32-2.6-6.44-7.23-6.44S265.43,134.41,265.35,138.73Z"/><path class="cls-1" d="M331.89,134.57H321.44c1.26-7.7,6.68-11.47,16.27-11.47,11.47,0,17.28,3.77,17.52,11.47v14.14c0,11.47-6.92,16.58-18.15,17.37-10,.78-16.89-3.86-16.89-13.05.23-10,7.46-12.65,18-13.67,4.48-.55,6.76-1.88,6.76-4.16-.24-2.36-2.44-3.54-6.76-3.54C334.49,131.66,332.44,132.61,331.89,134.57Zm13.2,13.67v-3.85a44.47,44.47,0,0,1-8.33,2.51c-4.16.79-6.28,2.75-6.28,5.82.23,3.3,2,4.87,5.26,4.87C341.56,157.59,345.09,154.13,345.09,148.24Z"/><path class="cls-1" d="M360.26,143.84c.31-13.43,7.46-20.11,21.37-20.11h1.49v10.84h-3.54c-5.81,0-8.72,3.06-8.72,9.11v21.61h-10.6Z"/><path class="cls-1" d="M398.44,117v23l12.88-14.77H423.9l-14.38,15.4,14.53,24.67H411.48l-7.38-13.67q-2-3.54-4-3.54a1.92,1.92,0,0,0-1.65,2v15.16H388V111.86h5.42A5.14,5.14,0,0,1,398.44,117Z"/><path class="cls-2" d="M5.74,111.86H16.11l10.76,40.7,10.45-40.7H53.58v53.43H49.4a6.12,6.12,0,0,1-6.11-6.11v-37L32.37,165.29H21.21L10.29,122.16v43.13H0V117.6A5.76,5.76,0,0,1,5.74,111.86Z"/><path class="cls-2" d="M64,111.86h37v9.51H85.17v43.92H80.36a6.11,6.11,0,0,1-6.11-6.11V121.37H58.45v-4A5.51,5.51,0,0,1,64,111.86Z"/><path class="cls-3" d="M5.74,111.86H16.11l10.76,40.7,10.45-40.7H53.58v53.43H49.4a6.12,6.12,0,0,1-6.11-6.11v-37L32.37,165.29H21.21L10.29,122.16v43.13H0V117.6A5.76,5.76,0,0,1,5.74,111.86Z"/><path class="cls-3" d="M64,111.86h37v9.51H85.17v43.92H80.36a6.11,6.11,0,0,1-6.11-6.11V121.37H58.45v-4A5.51,5.51,0,0,1,64,111.86Z"/><path class="cls-1" d="M457.3,166.08c-16.42,0-24.59-10.85-24.59-27.5,0-17.21,8.64-27.58,25.53-27.58,6.52,0,11.79,1.57,15.79,4.87,3.77,3.38,5.89,8,6.45,13.83h-6.6a5.32,5.32,0,0,1-5.11-3.22c-1.81-3.85-5.34-5.82-10.53-5.82-10.13,0-14.61,7.15-14.61,17.92,0,10.45,4.32,17.83,14.3,17.83,6.83,0,10.76-3.77,11.94-9.66h10.61C479.45,159.08,470.81,166.08,457.3,166.08Z"/><path class="cls-1" d="M491.16,111.86c3.46,0,5.11,1.73,5,5.11V120H485.74v-8.17Zm0,11.87c3.38,0,5,1.65,5,5v36.53H485.74V123.73Z"/><path class="cls-1" d="M513.63,131.19h-1.1v23c0,1.73,1,2.67,3.06,2.67h3.22v7.94a57.9,57.9,0,0,1-11-.08c-3.93-.39-5.82-2.83-5.74-7.46V111.86h5.42a5.28,5.28,0,0,1,5,5.27v6.6h6.28V126A5.08,5.08,0,0,1,513.63,131.19Z"/><path class="cls-1" d="M530.44,172.67c5.74,0,7.78-2.82,6.13-8.32l-14.14-40.62h11.86l8.25,28.83,7.23-25.14c.63-2.44,2.28-3.69,5-3.69H562l-16.42,48.63c-2.52,6.84-5,9.19-13.67,9.19-2.68,0-4.09-.08-4.4-.31v-8.57Z"/><path class="cls-4" d="M481.65,35.07l2.44,0c62.11,0,34.34,59.93,75.74,83.49-81-19.9-42.15-70.56-78.18-83.46"/><path class="cls-5" d="M546.76,76.37c52-26.26,39.74-59.19,69.32-76.37C559.9,9.09,571.6,53.4,546.76,76.37"/><path class="cls-6" d="M618.86,137.54c-16.59-34.71-43.1-18.68-62.73-30.43,26.94,28.74,46,14.51,62.73,30.43"/><path class="cls-7" d="M544.36,89c21.21,4,46-10.22,71-24.39,25.72-14.58,51.64-29.16,74-24-14.1-5.21-26.66-7.39-38-7.39C597.54,33.23,572,82.64,544.36,89"/><path class="cls-8" d="M595,86.4c-15.49,5.69-30.17,11.38-45.25,10.35,30.19,9.06,58.53,4.8,83.7.54,24.1-4.08,45.29-8.16,62.44-.55-20.6-15.61-38.68-20.81-55.17-20.81S609.23,81.16,595,86.4"/></g></g></svg>